#!OML:ASF H:\MichaelJackson\Top Level 1\Subject 1\Session 1\male.ASF
:FULLY-SPECIFIED
:DEGREES
1611
root -4.39779 15.8873 26.7324 -172.274 -192.521 -176.222
lowerback -3.95721 -3.40235 2.74797
upperback -2.60561 -4.63397 -4.63111
thorax -1.08465 -2.41552 -6.46677
lowerneck -5.58294 -1.35108 1.73035
upperneck -0.101052 -1.96233 3.10011
head 0.911025 -0.932407 0.618694
rclavicle 4.26766e-015 -3.02153e-014
rhumerus 9.06022 -20.7733 3.30972
rradius 27.3166
rwrist -9.87782
rhand -41.222 -48.8075
rfingers 7.12502
rthumb -14.1456 -78.3059
lclavicle 4.26766e-015 -3.02153e-014
lhumerus -57.4718 -30.7534 109.005
lradius 56.1064
lwrist 18.9187
lhand 28.4804 24.7092
lfingers 7.12502
lthumb 52.3357 44.6133
rfemur -26.9484 -15.0347 3.4231
rtibia 53.656
rfoot -29.2045 2.56364
rtoes -25.3824
lfemur -7.01837 -12.9491 -0.243915
ltibia 22.8063
lfoot -33.2099 -10.4818
ltoes -23.2031
1612
root -4.39404 15.8863 26.7282 -172.16 -192.394 -176.041
lowerback -3.97231 -3.39294 2.6156
upperback -2.62656 -4.61773 -4.65118
thorax -1.08646 -2.40589 -6.4128
lowerneck -5.71946 -1.28715 1.8485
upperneck -0.103861 -1.88553 2.91487
head 0.92904 -0.895555 0.542968
rclavicle -4.01731e-014 -1.74931e-014
rhumerus 9.10887 -21.0243 3.19393
rradius 27.3702
rwrist -11.0858
rhand -41.9942 -49.6491
rfingers 7.12502
rthumb -14.8895 -79.094
lclavicle -4.01731e-014 -1.74931e-014
lhumerus -57.5192 -30.682 109.034
lradius 56.2615
lwrist 19.7303
lhand 27.9763 25.3939
lfingers 7.12502
lthumb 51.8787 45.5714
rfemur -27.1425 -15.0137 3.22198
rtibia 53.7422
rfoot -29.1409 2.67355
rtoes -25.2125
lfemur -7.06391 -12.5497 -0.417204
ltibia 22.7558
lfoot -33.2533 -10.9548
ltoes -22.8808
1613
root -4.38891 15.8851 26.7208 -172.099 -192.32 -175.961
lowerback -3.95662 -3.35643 2.6271
upperback -2.60544 -4.56896 -4.68006
thorax -1.07039 -2.38112 -6.44896
lowerneck -5.83311 -1.2553 1.95024
upperneck -0.150236 -1.85063 2.8496
head 0.93166 -0.878843 0.50626
rclavicle 3.92041e-014 1.35174e-014
rhumerus 9.72594 -23.4631 2.24892
rradius 26.6219
rwrist -8.38755
rhand -41.3195 -48.789
rfingers 7.12502
rthumb -14.2395 -78.2808
lclavicle 3.92041e-014 1.35174e-014
lhumerus -57.4603 -30.8086 109.023
lradius 56.3453
lwrist 20.03
lhand 28.0532 25.8573
lfingers 7.12502
lthumb 51.9485 45.9935
rfemur -27.2664 -14.9628 3.12335
rtibia 53.7904
rfoot -29.0444 2.77191
rtoes -24.8267
lfemur -7.12056 -12.0715 -0.48712
ltibia 22.7409
lfoot -33.3217 -11.501
ltoes -22.552
1614
root -4.38305 15.8865 26.7134 -172.089 -192.242 -175.951
lowerback -3.95378 -3.29216 2.70169
upperback -2.54349 -4.48397 -4.68873
thorax -1.00327 -2.33672 -6.50161
lowerneck -5.88117 -1.27078 1.92601
upperneck -0.276164 -1.86765 2.88531
head 0.901003 -0.888573 0.520872
rclavicle -1.60798e-014 -3.10104e-014
rhumerus 9.8739 -24.7383 1.88212
rradius 26.294
rwrist -6.47345
rhand -41.1267 -49.6156
rfingers 7.12502
rthumb -14.0537 -79.1204
lclavicle -1.60798e-014 -3.10104e-014
lhumerus -57.3126 -31.034 109.011
lradius 56.3467
lwrist 19.8508
lhand 28.4006 25.8261
lfingers 7.12502
lthumb 52.2634 45.774
rfemur -27.3418 -14.8406 3.09816
rtibia 53.794
rfoot -28.9346 2.82082
rtoes -24.3313
lfemur -7.14145 -11.7067 -0.516691
ltibia 22.7573
lfoot -33.3674 -11.8271
ltoes -22.3722
1615
root -4.3757 15.8871 26.7069 -172.135 -192.189 -175.956
lowerback -3.87836 -3.22675 2.84957
upperback -2.49404 -4.40024 -4.73994
thorax -0.999104 -2.29649 -6.63575
lowerneck -5.97371 -1.30822 1.95035
upperneck -0.273455 -1.92292 2.93709
head 0.918348 -0.914507 0.530879
rclavicle 4.83986e-014 5.56597e-015
rhumerus 9.44082 -24.2507 2.22082
rradius 26.3887
rwrist -6.11028
rhand -41.2583 -51.5221
rfingers 7.12502
rthumb -14.1805 -81.0181
lclavicle 4.83986e-014 5.56597e-015
lhumerus -57.2045 -31.3276 109.006
lradius 56.2301
lwrist 19.2756
lhand 29.0091 25.6902
lfingers 7.12502
lthumb 52.8139 45.2997
rfemur -27.3178 -14.7167 3.07364
rtibia 53.7667
rfoot -28.8185 2.81581
rtoes -23.855
lfemur -7.11961 -11.5039 -0.553521
ltibia 22.8007
lfoot -33.3729 -12.0313
ltoes -22.1185
1616
root -4.36635 15.8904 26.7012 -172.173 -192.136 -176.063
lowerback -3.85639 -3.15466 3.12347
upperback -2.44895 -4.31181 -4.75911
thorax -0.975613 -2.25503 -6.81158
lowerneck -6.04686 -1.35597 1.87122
upperneck -0.266732 -1.98541 3.04746
head 0.935799 -0.94326 0.576068
rclavicle 2.7982e-014 -1.51076e-014
rhumerus 8.93778 -23.4154 2.71761
rradius 26.638
rwrist -6.87073
rhand -41.3338 -51.604
rfingers 7.12502
rthumb -14.2533 -81.0949
lclavicle 2.7982e-014 -1.51076e-014
lhumerus -57.0836 -31.5609 108.97
lradius 56.087
lwrist 18.4305
lhand 29.5967 25.0009
lfingers 7.12502
lthumb 53.344 44.273
rfemur -27.3113 -14.5671 3.1719
rtibia 53.7023
rfoot -28.7104 2.70818
rtoes -23.7155
lfemur -7.11147 -11.5099 -0.497728
ltibia 22.853
lfoot -33.3887 -11.9521
ltoes -22.0771
1617
root -4.35794 15.8933 26.6963 -172.241 -192.075 -176.144
lowerback -3.8036 -3.09792 3.32165
upperback -2.4095 -4.24114 -4.76193
thorax -0.96973 -2.22154 -6.92509
lowerneck -6.10886 -1.40765 1.80661
upperneck -0.210686 -2.05384 3.06689
head 0.96565 -0.975608 0.590555
rclavicle 3.03333e-014 1.03368e-014
rhumerus 8.73406 -23.1485 2.92215
rradius 26.7648
rwrist -7.28761
rhand -41.4302 -51.2586
rfingers 7.12502
rthumb -14.3461 -80.7429
lclavicle 3.03333e-014 1.03368e-014
lhumerus -57.0034 -31.6904 108.939
lradius 55.975
lwrist 17.5718
lhand 30.1183 24.344
lfingers 7.12502
lthumb 53.8133 43.3075
rfemur -27.2734 -14.4135 3.24919
rtibia 53.6276
rfoot -28.5977 2.52408
rtoes -23.7424
lfemur -7.05806 -11.6047 -0.480223
ltibia 22.8994
lfoot -33.3838 -11.7569
ltoes -22.2112
1618
root -4.34927 15.8977 26.691 -172.264 -192.029 -176.158
lowerback -3.77816 -3.07214 3.44287
upperback -2.39143 -4.21002 -4.75773
thorax -0.969655 -2.20732 -6.98869
lowerneck -6.14681 -1.40532 1.79508
upperneck -0.0903049 -2.05399 3.00992
head 1.00957 -0.974168 0.574356
rclavicle -5.79271e-014 -4.77083e-014
rhumerus 8.66139 -22.8178 3.04739
rradius 26.9206
rwrist -7.50313
rhand -41.3808 -51.1435
rfingers 7.12502
rthumb -14.2986 -80.6312
lclavicle -5.79271e-014 -4.77083e-014
lhumerus -56.9461 -31.7147 108.904
lradius 55.8697
lwrist 16.7933
lhand 30.5249 23.6205
lfingers 7.12502
lthumb 54.1782 42.3373
rfemur -27.2407 -14.2236 3.25006
rtibia 53.544
rfoot -28.4787 2.27813
rtoes -23.7503
lfemur -7.03709 -11.7812 -0.530397
ltibia 22.9362
lfoot -33.343 -11.5379
ltoes -22.2353
1619
root -4.34187 15.9036 26.6883 -172.266 -191.99 -176.161
lowerback -3.84243 -3.06824 3.46336
upperback -2.3685 -4.20551 -4.70149
thorax -0.906239 -2.20228 -6.94553
lowerneck -6.16251 -1.36435 1.86048
upperneck 0.0739588 -2.00629 2.8301
head 1.06071 -0.950312 0.508633
rclavicle 5.41067e-015 6.36111e-015
rhumerus 8.85739 -22.9521 2.97496
rradius 26.906
rwrist -7.06288
rhand -41.1863 -50.354
rfingers 7.12502
rthumb -14.1111 -79.8549
lclavicle 5.41067e-015 6.36111e-015
lhumerus -56.8436 -31.6323 108.899
lradius 55.7501
lwrist 16.3348
lhand 30.7225 23.2153
lfingers 7.12502
lthumb 54.3553 41.8102
rfemur -27.2186 -14.0034 3.2466
rtibia 53.4623
rfoot -28.3872 2.05207
rtoes -23.7055
lfemur -7.02458 -11.8481 -0.574605
ltibia 22.9439
lfoot -33.2956 -11.411
ltoes -22.3319
1620
root -4.33622 15.9082 26.6849 -172.257 -191.923 -176.088
lowerback -3.89853 -3.0804 3.3696
upperback -2.35405 -4.21886 -4.66684
thorax -0.851778 -2.20526 -6.85938
lowerneck -6.16214 -1.33636 1.83294
upperneck 0.232814 -1.96999 2.73479
head 1.10993 -0.93125 0.484348
rclavicle 1.27564e-014 -1.90833e-014
rhumerus 9.11871 -23.149 2.79045
rradius 26.9205
rwrist -6.57608
rhand -41.0347 -49.8014
rfingers 7.12502
rthumb -13.965 -79.3123
lclavicle 1.27564e-014 -1.90833e-014
lhumerus -56.7878 -31.5508 108.912
lradius 55.6788
lwrist 16.2561
lhand 30.5888 22.9982
lfingers 7.12502
lthumb 54.2355 41.6758
rfemur -27.2107 -13.771 3.15778
rtibia 53.3898
rfoot -28.3108 1.83817
rtoes -23.7759
lfemur -6.99075 -11.97 -0.699996
ltibia 22.9329
lfoot -33.2123 -11.3007
ltoes -22.2651
1621
root -4.33134 15.9141 26.682 -172.231 -191.902 -175.993
lowerback -3.97483 -3.10765 3.24287
upperback -2.33039 -4.25112 -4.63219
thorax -0.776612 -2.21656 -6.75641
lowerneck -6.20316 -1.33731 1.78278
upperneck 0.38476 -1.9715 2.64838
head 1.16481 -0.930888 0.465293
rclavicle 2.64663e-014 2.38542e-015
rhumerus 9.35408 -23.1875 2.66534
rradius 26.9448
rwrist -6.50788
rhand -41.0833 -49.6779
rfingers 7.12502
rthumb -14.0119 -79.1857
lclavicle 2.64663e-014 2.38542e-015
lhumerus -56.7294 -31.4761 108.928
lradius 55.6673
lwrist 16.4825
lhand 30.3872 23.0423
lfingers 7.12502
lthumb 54.0547 41.8433
rfemur -27.1897 -13.5278 3.04897
rtibia 53.3132
rfoot -28.2258 1.54581
rtoes -23.8669
lfemur -6.98381 -12.0332 -0.831029
ltibia 22.8858
lfoot -33.1281 -11.2651
ltoes -22.3014
1622
root -4.32681 15.9188 26.6791 -172.2 -191.887 -175.929
lowerback -4.02388 -3.13302 3.17371
upperback -2.34324 -4.28334 -4.61737
thorax -0.760501 -2.2315 -6.70443
lowerneck -6.29956 -1.32053 1.91814
upperneck 0.696465 -1.96586 2.43811
head 1.27669 -0.925836 0.376203
rclavicle -3.21348e-014 -2.70347e-014
rhumerus 9.44122 -22.85 2.66715
rradius 27.0603
rwrist -6.99339
rhand -41.1524 -49.4936
rfingers 7.12502
rthumb -14.0785 -78.9967
lclavicle -3.21348e-014 -2.70347e-014
lhumerus -56.7601 -31.5186 109.01
lradius 55.6925
lwrist 16.9983
lhand 30.0675 23.6256
lfingers 7.12502
lthumb 53.7677 42.6195
rfemur -27.1776 -13.3134 2.97148
rtibia 53.2376
rfoot -28.148 1.36331
rtoes -23.8228
lfemur -6.98079 -12.1644 -0.923305
ltibia 22.8345
lfoot -33.0442 -11.1817
ltoes -22.3326
1623
root -4.32297 15.9238 26.6757 -172.187 -191.909 -175.832
lowerback -4.07158 -3.16122 3.04723
upperback -2.31964 -4.31632 -4.60403
thorax -0.703012 -2.24404 -6.62266
lowerneck -6.4229 -1.33095 1.98623
upperneck 0.976927 -1.99387 2.34273
head 1.38625 -0.936057 0.332643
rclavicle 3.27995e-015 -3.73715e-014
rhumerus 9.58642 -22.8811 2.59466
rradius 27.0324
rwrist -6.79599
rhand -41.0468 -49.1959
rfingers 7.12502
rthumb -13.9767 -78.706
lclavicle 3.27995e-015 -3.73715e-014
lhumerus -56.7429 -31.6175 109.115
lradius 55.698
lwrist 17.451
lhand 29.714 23.9839
lfingers 7.12502
lthumb 53.4496 43.1874
rfemur -27.1237 -13.1184 2.8556
rtibia 53.1569
rfoot -28.0972 1.12905
rtoes -23.875
lfemur -6.97025 -12.2774 -1.04858
ltibia 22.7824
lfoot -33.0079 -11.065
ltoes -22.5298
1624
root -4.31788 15.9288 26.6713 -172.16 -191.954 -175.731
lowerback -4.0987 -3.18556 2.96641
upperback -2.32072 -4.34617 -4.628
thorax -0.688781 -2.25788 -6.6042
lowerneck -6.4163 -1.36506 1.94204
upperneck 1.14087 -2.04286 2.42694
head 1.43951 -0.95638 0.364272
rclavicle 2.7423e-014 -7.95139e-016
rhumerus 9.63645 -22.8091 2.55335
rradius 26.9961
rwrist -6.61731
rhand -40.88 -48.8825
rfingers 7.12502
rthumb -13.816 -78.4037
lclavicle 2.7423e-014 -7.95139e-016
lhumerus -56.7847 -31.7938 109.23
lradius 55.7054
lwrist 17.753
lhand 29.4413 24.2333
lfingers 7.12502
lthumb 53.2039 43.5957
rfemur -27.0696 -13.0233 2.74007
rtibia 53.0636
rfoot -28.0515 0.911023
rtoes -24.0756
lfemur -6.99933 -12.3129 -1.16875
ltibia 22.7414
lfoot -32.9258 -11.1365
ltoes -22.3967
